<svg xmlns="http://www.w3.org/2000/svg" viewBox="0 0 64 64" width="64" height="64">
  <rect width="64" height="64" rx="14" fill="#0B1E3D"/>
  <rect x="4" y="4" width="56" height="56" rx="11" fill="none" stroke="#D4AF37" stroke-opacity="0.55" stroke-width="2"/>
  <!-- Geometric/wireframe knight echoing the brand logo -->
  <g transform="translate(15,11)" stroke="#D4AF37" stroke-width="2" stroke-linejoin="round" stroke-linecap="round" fill="none">
    <path d="M2 42 L2 36 C2 26 8 22 12 18 C16 16 17 14 16 12 L13 8 L18 9 C21 5 26 4 31 4 C39 4 43 12 43 24 L43 38 L41 42 Z" fill="#D4AF37" fill-opacity="0.15"/>
    <path d="M13 18 L31 4 M18 9 L41 42 M2 36 L31 4 M13 8 L43 24 M16 12 L43 38"/>
    <circle cx="33" cy="14" r="1.2" fill="#D4AF37" stroke="none"/>
  </g>
</svg>
